<mxfile host="app.diagrams.net" modified="2024-05-26T21:59:35.519Z" agent="Mozilla/5.0 (Windows NT 10.0; Win64; x64) AppleWebKit/537.36 (KHTML, like Gecko) Chrome/125.0.0.0 Safari/537.36" version="24.4.8" etag="Py8vmLVqbCwWicOAlzX9" type="github">
  <diagram name="PÃ¡gina-1" id="JvE0Nqm259kFfcQa5sqC">
    <mxGraphModel>
      <root>
        <mxCell id="0" />
        <mxCell id="1" parent="0" />
      </root>
    </mxGraphModel>
  </diagram>
</mxfile>
